<svg width="61" height="56" viewBox="0 0 61 56" fill="none" xmlns="http://www.w3.org/2000/svg">
<path d="M30.4856 4.41016C23.0431 4.41016 17.0093 11.0282 17.0093 19.1925C17.0093 27.7655 26.8439 38.7188 29.7106 41.7294C30.1473 42.1879 30.8239 42.1879 31.2611 41.7294C34.1273 38.7188 43.9624 27.7655 43.9624 19.1925C43.9619 11.0282 37.928 4.41016 30.4856 4.41016ZM30.4856 23.701C27.9758 23.701 25.9416 21.9455 25.9416 19.1925C25.9416 16.4395 27.9758 14.8823 30.4856 14.8823C32.9954 14.8823 35.0295 16.4395 35.0295 19.1925C35.0295 21.9455 32.9954 23.701 30.4856 23.701Z" fill="#FCFCFC"/>
<path d="M34.5515 41.1543C34.1706 41.5678 33.796 41.955 33.4354 42.3127C35.2106 42.4698 35.708 43.5566 35.5215 43.9417C35.5215 44.8773 32.7807 45.6728 30.4855 45.6728C28.1903 45.6728 25.3879 44.8773 25.3879 43.9417C25.3879 43.4765 26.0096 42.4698 27.5361 42.3127C27.1755 41.955 26.8009 41.5681 26.42 41.1543C24.1997 41.731 22.7146 42.762 22.7146 43.9417C22.7141 45.7508 26.1935 47.2171 30.4855 47.2171C34.7775 47.2171 38.2569 45.7508 38.2569 43.9417C38.2569 42.762 36.7718 41.731 34.5515 41.1543Z" fill="#FCFCFC"/>
</svg>
