<svg width="4774" height="1024" viewBox="0 0 4774 1024" fill="none" xmlns="http://www.w3.org/2000/svg">
<path d="M1326.58 750C1291.91 750 1262.84 744.133 1239.38 732.4C1216.44 720.667 1199.38 703.6 1188.18 681.2C1176.98 658.267 1171.38 630 1171.38 596.4V426H1129.78C1116.98 426 1107.11 422.8 1100.18 416.4C1093.24 409.467 1089.77 400.133 1089.77 388.4C1089.77 376.133 1093.24 366.8 1100.18 360.4C1107.11 354 1116.98 350.8 1129.78 350.8H1171.38V278C1171.38 261.467 1175.64 248.933 1184.18 240.4C1193.24 231.867 1205.78 227.6 1221.78 227.6C1237.78 227.6 1250.04 231.867 1258.58 240.4C1267.11 248.933 1271.38 261.467 1271.38 278V350.8H1356.18C1368.98 350.8 1378.84 354 1385.78 360.4C1392.71 366.8 1396.18 376.133 1396.18 388.4C1396.18 400.133 1392.71 409.467 1385.78 416.4C1378.84 422.8 1368.98 426 1356.18 426H1271.38V590.8C1271.38 616.4 1276.98 635.6 1288.18 648.4C1299.38 661.2 1317.51 667.6 1342.58 667.6C1351.64 667.6 1359.64 666.8 1366.58 665.2C1373.51 663.6 1379.64 662.533 1384.98 662C1391.38 661.467 1396.71 663.6 1400.98 668.4C1405.24 672.667 1407.38 681.733 1407.38 695.6C1407.38 706.267 1405.51 715.867 1401.78 724.4C1398.58 732.4 1392.44 738 1383.38 741.2C1376.44 743.333 1367.38 745.2 1356.18 746.8C1344.98 748.933 1335.11 750 1326.58 750ZM1629.65 750C1589.12 750 1553.92 741.733 1524.05 725.2C1494.18 708.667 1470.98 685.2 1454.45 654.8C1437.92 623.867 1429.65 587.6 1429.65 546C1429.65 514.533 1434.18 486.533 1443.25 462C1452.85 436.933 1466.45 415.6 1484.05 398C1501.65 379.867 1522.72 366.267 1547.25 357.2C1571.78 347.6 1599.25 342.8 1629.65 342.8C1670.18 342.8 1705.38 351.067 1735.25 367.6C1765.12 384.133 1788.32 407.6 1804.85 438C1821.38 468.4 1829.65 504.4 1829.65 546C1829.65 577.467 1824.85 605.733 1815.25 630.8C1806.18 655.867 1792.85 677.467 1775.25 695.6C1757.65 713.2 1736.58 726.8 1712.05 736.4C1687.52 745.467 1660.05 750 1629.65 750ZM1629.65 674C1649.38 674 1666.72 669.2 1681.65 659.6C1696.58 650 1708.05 635.867 1716.05 617.2C1724.58 598 1728.85 574.267 1728.85 546C1728.85 503.333 1719.78 471.6 1701.65 450.8C1683.52 429.467 1659.52 418.8 1629.65 418.8C1609.92 418.8 1592.58 423.6 1577.65 433.2C1562.72 442.267 1550.98 456.4 1542.45 475.6C1534.45 494.267 1530.45 517.733 1530.45 546C1530.45 588.133 1539.52 620.133 1557.65 642C1575.78 663.333 1599.78 674 1629.65 674ZM1962.54 892.4C1946.54 892.4 1934.27 888.133 1925.74 879.6C1917.2 871.067 1912.94 858.533 1912.94 842V394.8C1912.94 378.267 1917.2 365.733 1925.74 357.2C1934.27 348.667 1946.27 344.4 1961.74 344.4C1977.74 344.4 1990 348.667 1998.54 357.2C2007.07 365.733 2011.34 378.267 2011.34 394.8V457.2L2002.54 433.2C2010.54 406 2026.8 384.133 2051.34 367.6C2076.4 351.067 2105.47 342.8 2138.54 342.8C2172.67 342.8 2202.54 351.067 2228.14 367.6C2254.27 384.133 2274.54 407.6 2288.94 438C2303.34 467.867 2310.54 503.867 2310.54 546C2310.54 587.6 2303.34 623.867 2288.94 654.8C2274.54 685.2 2254.54 708.667 2228.94 725.2C2203.34 741.733 2173.2 750 2138.54 750C2106 750 2077.47 742 2052.94 726C2028.4 709.467 2011.87 688.133 2003.34 662H2012.94V842C2012.94 858.533 2008.4 871.067 1999.34 879.6C1990.8 888.133 1978.54 892.4 1962.54 892.4ZM2110.54 674C2130.27 674 2147.6 669.2 2162.54 659.6C2177.47 650 2188.94 635.867 2196.94 617.2C2205.47 598 2209.74 574.267 2209.74 546C2209.74 503.333 2200.67 471.6 2182.54 450.8C2164.4 429.467 2140.4 418.8 2110.54 418.8C2090.8 418.8 2073.47 423.6 2058.54 433.2C2043.6 442.267 2031.87 456.4 2023.34 475.6C2015.34 494.267 2011.34 517.733 2011.34 546C2011.34 588.133 2020.4 620.133 2038.54 642C2056.67 663.333 2080.67 674 2110.54 674Z" fill="#FCFCFC"/>
<path d="M2859.83 341.2C2902.5 341.2 2935.03 354 2957.43 379.6C2980.36 404.667 2991.83 445.467 2991.83 502V698.8C2991.83 714.267 2987.03 726.267 2977.43 734.8C2968.36 742.8 2956.36 746.8 2941.43 746.8C2927.03 746.8 2915.03 742.8 2905.43 734.8C2896.36 726.267 2891.83 714.267 2891.83 698.8V502C2891.83 472.667 2886.5 451.867 2875.83 439.6C2865.7 426.8 2849.96 420.4 2828.63 420.4C2802.5 420.4 2781.7 429.467 2766.23 447.6C2750.76 465.2 2743.03 489.467 2743.03 520.4V698.8C2743.03 714.267 2738.23 726.267 2728.63 734.8C2719.56 742.8 2707.83 746.8 2693.43 746.8C2679.03 746.8 2667.03 742.8 2657.43 734.8C2647.83 726.267 2643.03 714.267 2643.03 698.8V502C2643.03 472.667 2637.7 451.867 2627.03 439.6C2616.9 426.8 2601.16 420.4 2579.83 420.4C2553.7 420.4 2532.9 429.467 2517.43 447.6C2502.5 465.2 2495.03 489.467 2495.03 520.4V698.8C2495.03 714.267 2490.23 726.267 2480.63 734.8C2471.03 742.8 2459.03 746.8 2444.63 746.8C2430.23 746.8 2418.23 742.8 2408.63 734.8C2399.56 726.267 2395.03 714.267 2395.03 698.8V389.2C2395.03 374.267 2399.83 362.8 2409.43 354.8C2419.03 346.8 2431.03 342.8 2445.43 342.8C2459.3 342.8 2470.5 346.8 2479.03 354.8C2488.1 362.267 2492.63 373.2 2492.63 387.6V406.8C2504.9 385.467 2521.16 369.2 2541.43 358C2562.23 346.8 2585.96 341.2 2612.63 341.2C2671.3 341.2 2710.5 365.733 2730.23 414.8C2741.96 392.4 2759.3 374.533 2782.23 361.2C2805.16 347.867 2831.03 341.2 2859.83 341.2ZM3403.82 634.8C3412.89 634.8 3420.09 638.267 3425.42 645.2C3431.29 652.133 3434.22 661.467 3434.22 673.2C3434.22 689.733 3424.35 703.6 3404.62 714.8C3386.49 724.933 3365.95 733.2 3343.02 739.6C3320.09 745.467 3298.22 748.4 3277.42 748.4C3214.49 748.4 3164.62 730.267 3127.82 694C3091.02 657.733 3072.62 608.133 3072.62 545.2C3072.62 505.2 3080.62 469.733 3096.62 438.8C3112.62 407.867 3135.02 383.867 3163.82 366.8C3193.15 349.733 3226.22 341.2 3263.02 341.2C3298.22 341.2 3328.89 348.933 3355.02 364.4C3381.15 379.867 3401.42 401.733 3415.82 430C3430.22 458.267 3437.42 491.6 3437.42 530C3437.42 552.933 3427.29 564.4 3407.02 564.4H3171.02C3174.22 601.2 3184.62 628.4 3202.22 646C3219.82 663.067 3245.42 671.6 3279.02 671.6C3296.09 671.6 3311.02 669.467 3323.82 665.2C3337.15 660.933 3352.09 655.067 3368.62 647.6C3384.62 639.067 3396.35 634.8 3403.82 634.8ZM3265.42 411.6C3238.22 411.6 3216.35 420.133 3199.82 437.2C3183.82 454.267 3174.22 478.8 3171.02 510.8H3351.82C3350.75 478.267 3342.75 453.733 3327.82 437.2C3312.89 420.133 3292.09 411.6 3265.42 411.6ZM3747.17 341.2C3794.1 341.2 3829.04 354.533 3851.97 381.2C3874.9 407.867 3886.37 448.133 3886.37 502V698.8C3886.37 713.733 3881.84 725.467 3872.77 734C3864.24 742.533 3852.24 746.8 3836.77 746.8C3821.3 746.8 3809.04 742.533 3799.97 734C3790.9 725.467 3786.37 713.733 3786.37 698.8V507.6C3786.37 477.2 3780.5 455.067 3768.77 441.2C3757.57 427.333 3739.7 420.4 3715.17 420.4C3686.37 420.4 3663.17 429.467 3645.57 447.6C3628.5 465.733 3619.97 490 3619.97 520.4V698.8C3619.97 713.733 3615.44 725.467 3606.37 734C3597.3 742.533 3585.04 746.8 3569.57 746.8C3554.1 746.8 3541.84 742.533 3532.77 734C3524.24 725.467 3519.97 713.733 3519.97 698.8V389.2C3519.97 375.333 3524.5 364.133 3533.57 355.6C3542.64 347.067 3554.9 342.8 3570.37 342.8C3584.24 342.8 3595.44 347.067 3603.97 355.6C3613.04 363.6 3617.57 374.267 3617.57 387.6V409.2C3630.9 387.333 3648.77 370.533 3671.17 358.8C3693.57 347.067 3718.9 341.2 3747.17 341.2ZM4297.49 342.8C4312.95 342.8 4325.22 347.067 4334.29 355.6C4343.35 364.133 4347.89 375.6 4347.89 390V700.4C4347.89 714.267 4343.09 725.467 4333.49 734C4324.42 742.533 4312.42 746.8 4297.49 746.8C4283.09 746.8 4271.62 742.8 4263.09 734.8C4254.55 726.8 4250.29 715.867 4250.29 702V682C4238.02 703.333 4221.49 719.867 4200.69 731.6C4179.89 742.8 4156.42 748.4 4130.29 748.4C4034.29 748.4 3986.29 694.533 3986.29 586.8V390C3986.29 375.6 3990.82 364.133 3999.89 355.6C4008.95 347.067 4020.95 342.8 4035.89 342.8C4051.35 342.8 4063.62 347.067 4072.69 355.6C4081.75 364.133 4086.29 375.6 4086.29 390V587.6C4086.29 615.333 4091.89 635.867 4103.09 649.2C4114.29 662.533 4131.89 669.2 4155.89 669.2C4183.62 669.2 4205.75 660.133 4222.29 642C4239.35 623.333 4247.89 598.8 4247.89 568.4V390C4247.89 375.6 4252.42 364.133 4261.49 355.6C4270.55 347.067 4282.55 342.8 4297.49 342.8Z" fill="url(#paint0_linear_1270_2867)"/>
<path fill-rule="evenodd" clip-rule="evenodd" d="M319 206C339.435 206 356 189.435 356 169C356 148.565 339.435 132 319 132L170 132C149.565 132 133 148.565 133 169L133 169.034L133 318C133 338.435 149.565 355 170 355C190.435 355 207 338.435 207 318L207 222C207 213.163 214.163 206 223 206H319ZM170 669C190.435 669 207 685.565 207 706V802C207 810.837 214.163 818 223 818H319C339.435 818 356 834.565 356 855C356 875.435 339.435 892 319 892H170.034H170C149.565 892 133 875.435 133 855V706C133 685.565 149.565 669 170 669ZM857 669C836.565 669 820 685.565 820 706V802C820 810.837 812.837 818 804 818H708C687.565 818 671 834.565 671 855C671 875.435 687.565 892 708 892H856.966H857C877.435 892 894 875.435 894 855V706C894 685.565 877.435 669 857 669ZM894 170C894 149.013 876.987 132 856 132L709 132C688.013 132 671 149.013 671 170C671 190.987 688.013 208 709 208L802 208C810.837 208 818 215.163 818 224V318C818 338.987 835.013 356 856 356C876.987 356 894 338.987 894 318V171C894 170.833 893.999 170.666 893.997 170.5C893.999 170.334 894 170.167 894 170ZM290.344 348.719C290.344 324.125 310.281 304.188 334.875 304.188H691.125C715.719 304.188 735.656 324.125 735.656 348.719C735.656 373.313 715.719 393.25 691.125 393.25H334.875C310.281 393.25 290.344 373.313 290.344 348.719ZM290 512C290 487.147 310.147 467 335 467H533C557.853 467 578 487.147 578 512C578 536.853 557.853 557 533 557H335C310.147 557 290 536.853 290 512ZM662 467C637.147 467 617 487.147 617 512C617 536.853 637.147 557 662 557H688C712.853 557 733 536.853 733 512C733 487.147 712.853 467 688 467H662ZM290.344 675.281C290.344 650.687 310.281 630.75 334.875 630.75H691.125C715.719 630.75 735.656 650.687 735.656 675.281C735.656 699.875 715.719 719.812 691.125 719.812H334.875C310.281 719.812 290.344 699.875 290.344 675.281Z" fill="url(#paint1_linear_1270_2867)"/>
<defs>
<linearGradient id="paint0_linear_1270_2867" x1="4400" y1="1024" x2="3496.78" y2="-678.948" gradientUnits="userSpaceOnUse">
<stop stop-color="#FF815A"/>
<stop offset="1" stop-color="#FF0844"/>
</linearGradient>
<linearGradient id="paint1_linear_1270_2867" x1="894" y1="892" x2="134.001" y2="131.001" gradientUnits="userSpaceOnUse">
<stop stop-color="#FF815A"/>
<stop offset="1" stop-color="#FF0844"/>
</linearGradient>
</defs>
</svg>
