<svg width="1024" height="1024" viewBox="0 0 1024 1024" fill="none" xmlns="http://www.w3.org/2000/svg">
<path fill-rule="evenodd" clip-rule="evenodd" d="M318 206C338.435 206 355 189.435 355 169C355 148.565 338.435 132 318 132L169 132C148.565 132 132 148.565 132 169L132 169.034L132 318C132 338.435 148.565 355 169 355C189.435 355 206 338.435 206 318L206 222C206 213.163 213.163 206 222 206H318ZM169 669C189.435 669 206 685.565 206 706V802C206 810.837 213.163 818 222 818H318C338.435 818 355 834.565 355 855C355 875.435 338.435 892 318 892H169.034H169C148.565 892 132 875.435 132 855V706C132 685.565 148.565 669 169 669ZM856 669C835.565 669 819 685.565 819 706V802C819 810.837 811.837 818 803 818H707C686.565 818 670 834.565 670 855C670 875.435 686.565 892 707 892H855.966H856C876.435 892 893 875.435 893 855V706C893 685.565 876.435 669 856 669ZM893 170C893 149.013 875.987 132 855 132L708 132C687.013 132 670 149.013 670 170C670 190.987 687.013 208 708 208L801 208C809.837 208 817 215.163 817 224V318C817 338.987 834.013 356 855 356C875.987 356 893 338.987 893 318V171C893 170.833 892.999 170.666 892.997 170.5C892.999 170.334 893 170.167 893 170ZM289.344 348.719C289.344 324.125 309.281 304.188 333.875 304.188H690.125C714.719 304.188 734.656 324.125 734.656 348.719C734.656 373.313 714.719 393.25 690.125 393.25H333.875C309.281 393.25 289.344 373.313 289.344 348.719ZM289 512C289 487.147 309.147 467 334 467H532C556.853 467 577 487.147 577 512C577 536.853 556.853 557 532 557H334C309.147 557 289 536.853 289 512ZM661 467C636.147 467 616 487.147 616 512C616 536.853 636.147 557 661 557H687C711.853 557 732 536.853 732 512C732 487.147 711.853 467 687 467H661ZM289.344 675.281C289.344 650.687 309.281 630.75 333.875 630.75H690.125C714.719 630.75 734.656 650.687 734.656 675.281C734.656 699.875 714.719 719.812 690.125 719.812H333.875C309.281 719.812 289.344 699.875 289.344 675.281Z" fill="url(#paint0_linear_1265_3343)"/>
<defs>
<linearGradient id="paint0_linear_1265_3343" x1="893" y1="892" x2="133.001" y2="131.001" gradientUnits="userSpaceOnUse">
<stop stop-color="#FF815A"/>
<stop offset="1" stop-color="#FF0844"/>
</linearGradient>
</defs>
</svg>
