<svg id="Layer_1" height="512" viewBox="0 0 48 48" width="512" xmlns="http://www.w3.org/2000/svg" xmlns:xlink="http://www.w3.org/1999/xlink"><linearGradient id="SVGID_1_" gradientUnits="userSpaceOnUse" x1="25.234" x2="18.773" y1="22.184" y2="43.447"><stop offset="0" stop-color="#7f6c7f"/><stop offset="1" stop-color="#5a465b"/></linearGradient><linearGradient id="lg1"><stop offset="0" stop-color="#ff7044"/><stop offset="1" stop-color="#f92814"/></linearGradient><linearGradient id="SVGID_2_" gradientUnits="userSpaceOnUse" x1="9" x2="9" xlink:href="#lg1" y1="5.398" y2="22.694"/><linearGradient id="lg2"><stop offset="0" stop-color="#ffc200"/><stop offset=".268" stop-color="#fb0"/><stop offset=".659" stop-color="#ffa801"/><stop offset="1" stop-color="#ff9102"/></linearGradient><linearGradient id="SVGID_3_" gradientUnits="userSpaceOnUse" x1="19" x2="19" xlink:href="#lg2" y1="5.31" y2="22.231"/><linearGradient id="SVGID_4_" gradientUnits="userSpaceOnUse" x1="29" x2="29" xlink:href="#lg1" y1="5.398" y2="22.694"/><linearGradient id="SVGID_5_" gradientUnits="userSpaceOnUse" x1="39" x2="39" xlink:href="#lg2" y1="5.31" y2="22.231"/><linearGradient id="SVGID_6_" gradientUnits="userSpaceOnUse" x1="29.556" x2="29.556" xlink:href="#lg2" y1="23.127" y2="43.432"/><linearGradient id="lg3"><stop offset="0" stop-color="#ffeaca"/><stop offset="1" stop-color="#ffd9b1"/></linearGradient><linearGradient id="SVGID_7_" gradientUnits="userSpaceOnUse" x1="14.556" x2="14.556" xlink:href="#lg3" y1="23.008" y2="33.161"/><linearGradient id="SVGID_8_" gradientUnits="userSpaceOnUse" x1="36.218" x2="33.633" y1="37.126" y2="33.778"><stop offset="0" stop-color="#ffc200" stop-opacity="0"/><stop offset="1" stop-color="#ff9102"/></linearGradient><linearGradient id="SVGID_9_" gradientUnits="userSpaceOnUse" x1="32.889" x2="32.889" xlink:href="#lg3" y1="30.72" y2="35.232"/><g><path d="m35.3013 42.8889h-22.6026c-3.5769 0-6.4765-2.8996-6.4765-6.4765v-21.3013h35.5556v21.3013c0 3.5769-2.8997 6.4765-6.4765 6.4765z" fill="url(#SVGID_1_)"/><path d="m9 21.7778c-2.7614 0-5-2.2386-5-5v-6.8408c0-2.6653 2.1606-4.8259 4.8259-4.8259h5.1741v11.6667c0 2.7614-2.2386 5-5 5z" fill="url(#SVGID_2_)"/><path d="m19 21.7778c-2.7614 0-5-2.2386-5-5v-11.6667h10v11.6667c0 2.7614-2.2386 5-5 5z" fill="url(#SVGID_3_)"/><path d="m29 21.7778c-2.7614 0-5-2.2386-5-5v-11.6667h10v11.6667c0 2.7614-2.2386 5-5 5z" fill="url(#SVGID_4_)"/><path d="m39 21.7778c-2.7614 0-5-2.2386-5-5v-11.6667h5.1741c2.6653 0 4.8259 2.1606 4.8259 4.8259v6.8408c0 2.7614-2.2386 5-5 5z" fill="url(#SVGID_5_)"/><path d="m29.5556 22.8889c-3.6819 0-6.6667 2.9848-6.6667 6.6667v13.3333h13.3333v-13.3333c0-3.682-2.9847-6.6667-6.6666-6.6667z" fill="url(#SVGID_6_)"/><path d="m17.8935 32.8889h-6.676c-.9179 0-1.662-.7441-1.662-1.662v-3.338c0-2.7614 2.2386-5 5-5 2.7614 0 5 2.2386 5 5v3.338c.0001.9179-.7441 1.662-1.662 1.662z" fill="url(#SVGID_7_)"/><path d="m31.0702 34.1635 5.152 5.473v-6.2114l-1.6243-1.9407z" fill="url(#SVGID_8_)" opacity=".4"/><circle cx="32.889" cy="32.889" fill="url(#SVGID_9_)" r="2.222"/></g></svg>